<mxfile host="app.diagrams.net" modified="2024-06-15T14:30:17.210Z" agent="Mozilla/5.0 (Windows NT 10.0; Win64; x64) AppleWebKit/537.36 (KHTML, like Gecko) Chrome/125.0.0.0 Safari/537.36 Edg/125.0.0.0" etag="c9SN1TnFsWItCyh_nM7v" version="24.5.2" type="github">
  <diagram name="Page-1" id="vK4dzt7K8EX1tZS-AH3X">
    <mxGraphModel dx="2238" dy="626" grid="1" gridSize="10" guides="1" tooltips="1" connect="1" arrows="1" fold="1" page="1" pageScale="1" pageWidth="850" pageHeight="1100" math="0" shadow="0">
      <root>
        <mxCell id="0" />
        <mxCell id="1" parent="0" />
        <mxCell id="_nCRcqn4MYbrRWl4OLFf-9" style="edgeStyle=orthogonalEdgeStyle;rounded=0;orthogonalLoop=1;jettySize=auto;html=1;" edge="1" parent="1" source="_nCRcqn4MYbrRWl4OLFf-7" target="_nCRcqn4MYbrRWl4OLFf-8">
          <mxGeometry relative="1" as="geometry" />
        </mxCell>
        <mxCell id="_nCRcqn4MYbrRWl4OLFf-13" style="edgeStyle=orthogonalEdgeStyle;rounded=0;orthogonalLoop=1;jettySize=auto;html=1;" edge="1" parent="1" source="_nCRcqn4MYbrRWl4OLFf-7" target="_nCRcqn4MYbrRWl4OLFf-11">
          <mxGeometry relative="1" as="geometry" />
        </mxCell>
        <mxCell id="_nCRcqn4MYbrRWl4OLFf-14" style="edgeStyle=orthogonalEdgeStyle;rounded=0;orthogonalLoop=1;jettySize=auto;html=1;entryX=0.5;entryY=0;entryDx=0;entryDy=0;" edge="1" parent="1" source="_nCRcqn4MYbrRWl4OLFf-7" target="_nCRcqn4MYbrRWl4OLFf-10">
          <mxGeometry relative="1" as="geometry">
            <Array as="points">
              <mxPoint x="380" y="380" />
              <mxPoint x="720" y="380" />
            </Array>
          </mxGeometry>
        </mxCell>
        <mxCell id="_nCRcqn4MYbrRWl4OLFf-15" style="edgeStyle=orthogonalEdgeStyle;rounded=0;orthogonalLoop=1;jettySize=auto;html=1;" edge="1" parent="1" source="_nCRcqn4MYbrRWl4OLFf-7" target="_nCRcqn4MYbrRWl4OLFf-12">
          <mxGeometry relative="1" as="geometry">
            <Array as="points">
              <mxPoint x="380" y="380" />
              <mxPoint x="-90" y="380" />
            </Array>
          </mxGeometry>
        </mxCell>
        <mxCell id="_nCRcqn4MYbrRWl4OLFf-7" value="&lt;div&gt;1.0&lt;/div&gt;Sistem Informasi Kasir Pujasera" style="rounded=0;whiteSpace=wrap;html=1;" vertex="1" parent="1">
          <mxGeometry x="320" y="300" width="120" height="60" as="geometry" />
        </mxCell>
        <mxCell id="_nCRcqn4MYbrRWl4OLFf-31" style="edgeStyle=orthogonalEdgeStyle;rounded=0;orthogonalLoop=1;jettySize=auto;html=1;" edge="1" parent="1" source="_nCRcqn4MYbrRWl4OLFf-8" target="_nCRcqn4MYbrRWl4OLFf-21">
          <mxGeometry relative="1" as="geometry">
            <Array as="points">
              <mxPoint x="580" y="480" />
              <mxPoint x="485" y="480" />
            </Array>
          </mxGeometry>
        </mxCell>
        <mxCell id="_nCRcqn4MYbrRWl4OLFf-32" style="edgeStyle=orthogonalEdgeStyle;rounded=0;orthogonalLoop=1;jettySize=auto;html=1;" edge="1" parent="1" source="_nCRcqn4MYbrRWl4OLFf-8" target="_nCRcqn4MYbrRWl4OLFf-22">
          <mxGeometry relative="1" as="geometry" />
        </mxCell>
        <mxCell id="_nCRcqn4MYbrRWl4OLFf-8" value="&lt;div&gt;1.3&lt;/div&gt;Manajemen Administrator" style="rounded=0;whiteSpace=wrap;html=1;" vertex="1" parent="1">
          <mxGeometry x="520" y="400" width="120" height="60" as="geometry" />
        </mxCell>
        <mxCell id="_nCRcqn4MYbrRWl4OLFf-33" style="edgeStyle=orthogonalEdgeStyle;rounded=0;orthogonalLoop=1;jettySize=auto;html=1;entryX=0.5;entryY=0;entryDx=0;entryDy=0;" edge="1" parent="1" source="_nCRcqn4MYbrRWl4OLFf-10" target="_nCRcqn4MYbrRWl4OLFf-23">
          <mxGeometry relative="1" as="geometry" />
        </mxCell>
        <mxCell id="_nCRcqn4MYbrRWl4OLFf-34" style="edgeStyle=orthogonalEdgeStyle;rounded=0;orthogonalLoop=1;jettySize=auto;html=1;" edge="1" parent="1" source="_nCRcqn4MYbrRWl4OLFf-10" target="_nCRcqn4MYbrRWl4OLFf-24">
          <mxGeometry relative="1" as="geometry">
            <Array as="points">
              <mxPoint x="720" y="480" />
              <mxPoint x="910" y="480" />
            </Array>
          </mxGeometry>
        </mxCell>
        <mxCell id="_nCRcqn4MYbrRWl4OLFf-10" value="&lt;div&gt;1.4&lt;/div&gt;Manajemen Pihak Stan" style="rounded=0;whiteSpace=wrap;html=1;" vertex="1" parent="1">
          <mxGeometry x="660" y="400" width="120" height="60" as="geometry" />
        </mxCell>
        <mxCell id="_nCRcqn4MYbrRWl4OLFf-28" style="edgeStyle=orthogonalEdgeStyle;rounded=0;orthogonalLoop=1;jettySize=auto;html=1;" edge="1" parent="1" source="_nCRcqn4MYbrRWl4OLFf-11" target="_nCRcqn4MYbrRWl4OLFf-19">
          <mxGeometry relative="1" as="geometry" />
        </mxCell>
        <mxCell id="_nCRcqn4MYbrRWl4OLFf-29" style="edgeStyle=orthogonalEdgeStyle;rounded=0;orthogonalLoop=1;jettySize=auto;html=1;" edge="1" parent="1" source="_nCRcqn4MYbrRWl4OLFf-11" target="_nCRcqn4MYbrRWl4OLFf-20">
          <mxGeometry relative="1" as="geometry" />
        </mxCell>
        <mxCell id="_nCRcqn4MYbrRWl4OLFf-11" value="&lt;div&gt;1.2&lt;/div&gt;&lt;div&gt;Manajemen Kasir Terpusat&lt;/div&gt;" style="rounded=0;whiteSpace=wrap;html=1;" vertex="1" parent="1">
          <mxGeometry x="220" y="400" width="120" height="60" as="geometry" />
        </mxCell>
        <mxCell id="_nCRcqn4MYbrRWl4OLFf-25" style="edgeStyle=orthogonalEdgeStyle;rounded=0;orthogonalLoop=1;jettySize=auto;html=1;" edge="1" parent="1" source="_nCRcqn4MYbrRWl4OLFf-12" target="_nCRcqn4MYbrRWl4OLFf-18">
          <mxGeometry relative="1" as="geometry">
            <Array as="points">
              <mxPoint x="-90" y="480" />
              <mxPoint x="-230" y="480" />
            </Array>
          </mxGeometry>
        </mxCell>
        <mxCell id="_nCRcqn4MYbrRWl4OLFf-26" style="edgeStyle=orthogonalEdgeStyle;rounded=0;orthogonalLoop=1;jettySize=auto;html=1;" edge="1" parent="1" source="_nCRcqn4MYbrRWl4OLFf-12" target="_nCRcqn4MYbrRWl4OLFf-16">
          <mxGeometry relative="1" as="geometry" />
        </mxCell>
        <mxCell id="_nCRcqn4MYbrRWl4OLFf-27" style="edgeStyle=orthogonalEdgeStyle;rounded=0;orthogonalLoop=1;jettySize=auto;html=1;entryX=0.5;entryY=0;entryDx=0;entryDy=0;" edge="1" parent="1" source="_nCRcqn4MYbrRWl4OLFf-12" target="_nCRcqn4MYbrRWl4OLFf-17">
          <mxGeometry relative="1" as="geometry">
            <Array as="points">
              <mxPoint x="-90" y="480" />
              <mxPoint x="50" y="480" />
            </Array>
          </mxGeometry>
        </mxCell>
        <mxCell id="_nCRcqn4MYbrRWl4OLFf-12" value="&lt;div&gt;1.1&lt;/div&gt;Manajemen Pemesanan" style="rounded=0;whiteSpace=wrap;html=1;" vertex="1" parent="1">
          <mxGeometry x="-150" y="400" width="120" height="60" as="geometry" />
        </mxCell>
        <mxCell id="_nCRcqn4MYbrRWl4OLFf-16" value="&lt;div&gt;1.1.2&lt;/div&gt;Proses Pembayaran" style="rounded=0;whiteSpace=wrap;html=1;" vertex="1" parent="1">
          <mxGeometry x="-150" y="500" width="120" height="60" as="geometry" />
        </mxCell>
        <mxCell id="_nCRcqn4MYbrRWl4OLFf-17" value="&lt;div&gt;1.1.3&lt;/div&gt;&lt;div&gt;Proses Pengambilan Pesanan&lt;/div&gt;" style="rounded=0;whiteSpace=wrap;html=1;" vertex="1" parent="1">
          <mxGeometry x="-10" y="500" width="120" height="60" as="geometry" />
        </mxCell>
        <mxCell id="_nCRcqn4MYbrRWl4OLFf-18" value="&lt;div&gt;1.1.1&lt;/div&gt;&lt;div&gt;Proses Pemesanan&lt;/div&gt;" style="rounded=0;whiteSpace=wrap;html=1;" vertex="1" parent="1">
          <mxGeometry x="-290" y="500" width="120" height="60" as="geometry" />
        </mxCell>
        <mxCell id="_nCRcqn4MYbrRWl4OLFf-19" value="1.2.1&lt;div&gt;&lt;/div&gt;&lt;div&gt;Pengelolaan Pembayaran&lt;/div&gt;" style="rounded=0;whiteSpace=wrap;html=1;" vertex="1" parent="1">
          <mxGeometry x="140" y="500" width="120" height="60" as="geometry" />
        </mxCell>
        <mxCell id="_nCRcqn4MYbrRWl4OLFf-20" value="1.2.2&lt;div&gt;&lt;/div&gt;&lt;div&gt;Pencetakan Struk&lt;/div&gt;" style="rounded=0;whiteSpace=wrap;html=1;" vertex="1" parent="1">
          <mxGeometry x="280" y="500" width="120" height="60" as="geometry" />
        </mxCell>
        <mxCell id="_nCRcqn4MYbrRWl4OLFf-21" value="1.3.1&lt;div&gt;Pengelolaan Stan&lt;/div&gt;" style="rounded=0;whiteSpace=wrap;html=1;" vertex="1" parent="1">
          <mxGeometry x="425" y="500" width="120" height="60" as="geometry" />
        </mxCell>
        <mxCell id="_nCRcqn4MYbrRWl4OLFf-22" value="1.3.2&lt;div&gt;Rekap Data Penjualan&lt;/div&gt;" style="rounded=0;whiteSpace=wrap;html=1;" vertex="1" parent="1">
          <mxGeometry x="570" y="500" width="120" height="60" as="geometry" />
        </mxCell>
        <mxCell id="_nCRcqn4MYbrRWl4OLFf-23" value="1.4.1&lt;div&gt;Pengelolaan Pesanan&lt;/div&gt;" style="rounded=0;whiteSpace=wrap;html=1;" vertex="1" parent="1">
          <mxGeometry x="710" y="500" width="120" height="60" as="geometry" />
        </mxCell>
        <mxCell id="_nCRcqn4MYbrRWl4OLFf-24" value="1.4.2&lt;div&gt;Pengelolaan Menu Stan&lt;/div&gt;" style="rounded=0;whiteSpace=wrap;html=1;" vertex="1" parent="1">
          <mxGeometry x="850" y="500" width="120" height="60" as="geometry" />
        </mxCell>
      </root>
    </mxGraphModel>
  </diagram>
</mxfile>
